<svg data-v-0dd9719b="" version="1.0" xmlns="http://www.w3.org/2000/svg" xmlns:xlink="http://www.w3.org/1999/xlink" width="100%" height="100%" viewBox="0 0 340.000000 250.000000" preserveAspectRatio="xMidYMid meet" color-interpolation-filters="sRGB" style="margin: auto;"> <rect data-v-0dd9719b="" x="0" y="0" width="100%" height="100%" fill="#fff" fill-opacity="1" class="background"></rect> <rect data-v-0dd9719b="" x="0" y="0" width="100%" height="100%" fill="url(#watermark)" fill-opacity="1" class="watermarklayer"></rect> <g data-v-0dd9719b="" fill="#fd9f30" class="icon-text-wrapper icon-svg-group iconsvg" transform="translate(48.23500061035156,96.69874954223633)"><g class="iconsvg-imagesvg" transform="translate(0,5.289819717407227)"><g><rect fill="#fd9f30" fill-opacity="0" stroke-width="2" x="0" y="0" width="60" height="46.02285801948301" class="image-rect"></rect> <svg x="0" y="0" width="60" height="46.02285801948301" filtersec="colorsb5320256583" class="image-svg-svg primary" style="overflow: visible;"><svg xmlns="http://www.w3.org/2000/svg" viewBox="-0.000019073486328125 -0.00000762939453125 216.4140625 166.00003051757812"><title>资源 51</title><g><g fill="#fd9f30"><path d="M69 165.79v-25.66l-8.32.6v25.09h-28.3c0-9.41-.12-18.63.07-27.84.06-2.95-.93-4.44-3.48-5.94-38.59-22.78-38.64-75.36-.07-98.15 2.7-1.6 3.63-3.24 3.56-6.33-.23-9.07-.08-18.16-.08-27.56H60.2v52.2c-3.72.81-7.52 1.31-11.12 2.46-14.22 4.55-23.4 18-21.73 31.39C29.12 100.26 42 111.88 56.75 113c15.87 1.16 29.29-4.52 40.89-14.8 9.35-8.3 18.07-17.3 27.48-25.54 9.18-8 20-12.3 32.43-11.85 14.9.54 25.56 12.51 23.23 26C179 97.05 168.75 104.73 156 105V88.61c-7.25-.48-9 1.06-9 7.38v69.82h-28.28v-49l-3.46 2.42c-4.75 3.37-9.34 7-14.3 10-2.69 1.64-3.57 3.39-3.51 6.45.19 9.93.07 19.87.07 30.15z"></path><path d="M184.12 166h-27.85v-52.7c10.86-.56 20.17-4.44 27-13.16a27.44 27.44 0 0 0 6-17.4c-.07-15.58-9.92-24.69-33.14-30.56V0h28v10.4c0 6 .14 12-.07 17.94-.1 2.66.92 3.93 3.12 5.28C206 45.17 216.86 61.7 216.4 84.19c-.42 21-10.84 36.69-28.5 47.54-3 1.84-3.93 3.72-3.85 7 .2 8.97.07 17.91.07 27.27zM69.23 104.15V.09h28.14v48.6c7.16-4.8 13.74-9.11 20.17-13.64.75-.53.93-2.24.94-3.4.07-9.1 0-18.21 0-27.31V0h28.15c.12 1.34.3 2.44.3 3.54 0 15.36 0 30.72.05 46.07 0 2.64-.55 4-3.47 4.64-14.72 3.46-25.47 13.19-35.93 23.35-5.9 5.74-11.85 11.46-18.11 16.79a44.82 44.82 0 0 1-20.24 9.76zM60.3 105.05c-15.3-1-25.24-10.31-24.9-22.76.32-12 11-21.22 24.9-21.36z"></path></g></g></svg></svg> <!----></g></g> <g transform="translate(67,0)"><g data-gra="path-name" fill-rule="" class="tp-name iconsvg-namesvg" transform="translate(0,0)"><g transform="scale(1)"><g><path d="M11.69-20.26L11.69-20.26 9.84-17.49Q6.72-19.69 1.58-22.37L1.58-22.37 3.43-24.79Q8.88-22.1 11.69-20.26ZM5.71 2.77L5.71 2.77 2.9 0.57Q7.38-5.71 11.25-13.49L11.25-13.49Q11.34-13.62 11.38-13.75L11.38-13.75 13.8-11.56Q10.11-4.04 5.71 2.77ZM27.69-12.08L27.69-22.28 19.78-22.28 19.78-12.08 27.69-12.08ZM30.76-25.36L30.76-9.1 19.78-9.1 19.78-5.98 16.7-5.98 16.7-25.36 30.76-25.36ZM13.97-34.8L43.15-34.8 43.15-31.55 39.68-31.55 39.68-1.41Q39.68 1.58 37.97 2.42L37.97 2.42Q37.66 2.59 37.31 2.68L37.31 2.68Q35.2 3.34 27.42 3.34L27.42 3.34Q27.11 1.71 26.1-0.18L26.1-0.18Q28.78-0.09 35.02-0.09L35.02-0.09Q36.21-0.13 36.34-0.92L36.34-0.92Q36.39-1.19 36.39-1.45L36.39-1.45 36.39-31.55 13.97-31.55 13.97-32.17 12.04-29.53Q9.1-31.6 3.69-34.58L3.69-34.58 5.58-37Q10.72-34.32 13.97-32.26L13.97-32.26 13.97-34.8ZM79.01-8.13L79.01-5.36 68.99-5.36 68.99 2.55 65.79 2.55 65.79-5.36 56.12-5.36 56.12-8.13 65.79-8.13 65.79-12.7 57.04-12.7 57.04-15.42 61.79-15.42Q61.04-18.15 59.33-20.74L59.33-20.74 61.96-21.4Q63.9-18.59 64.56-16.22L64.56-16.22 62.14-15.42 70.18-15.42Q71.76-18.54 72.77-21.62L72.77-21.62 75.76-20.92Q74.58-18.24 73.17-15.42L73.17-15.42 78.27-15.42 78.27-12.7 68.99-12.7 68.99-8.13 79.01-8.13ZM87.23-33.18L87.23-30.01 68.86-30.01Q68.73-28.96 68.38-26.89L68.38-26.89Q68.2-25.75 68.12-25.22L68.12-25.22 84.81-25.22 84.81-0.44Q84.81 1.98 83.45 2.72L83.45 2.72Q83.14 2.86 82.88 2.94L82.88 2.94Q81.3 3.47 75.28 3.47L75.28 3.47Q74.88 1.98 74.09 0.44L74.09 0.44Q78.44 0.66 80.42 0.53L80.42 0.53Q81.34 0.13 81.43-0.44L81.43-0.44 81.43-22.15 53.61-22.15 53.61 3.43 50.32 3.43 50.32-25.22 64.95-25.22Q65.17-26.76 65.52-30.01L65.52-30.01 47.9-30.01 47.9-33.18 65.83-33.18Q66.09-36.52 66.14-37.71L66.14-37.71 69.74-37.31Q69.61-35.95 69.26-33.18L69.26-33.18 87.23-33.18ZM125.11-30.63L125.11-30.63 117.6-30.63Q115.66-26.98 113.51-24.26L113.51-24.26 121.95-24.26Q123.79-27.64 125.11-30.63ZM127.13-21.23L113.12-21.23 113.12-23.82 112.32-22.9Q111.27-24.13 109.91-24.83L109.91-24.83Q114.48-29.62 116.81-36.91L116.81-36.91 120.01-36.43Q119.79-35.86 118.78-33.4L118.78-33.4 126.65-33.4 127.13-33.62 129.33-32.87Q127.4-28.34 125.46-24.26L125.46-24.26 130.43-24.26 130.43-5.63 112.1-5.63 112.1-8.66 127.13-8.66 127.13-13.58 113.73-13.58 113.73-16.52 127.13-16.52 127.13-21.23ZM110.87-11.25L104.9-11.25 104.9-2.77Q108.98-1.1 117.11-1.1L117.11-1.1Q130.83-1.1 133.42-1.19L133.42-1.19Q132.45 0.26 132.06 2.11L132.06 2.11 117.11 2.11Q107.93 2.11 103.49-0.09L103.49-0.09Q99.58-2.02 97.29-6.06L97.29-6.06Q96.37 0.04 94.09 3.52L94.09 3.52Q93.3 2.68 91.63 1.54L91.63 1.54Q94.44-2.81 94.88-13.05L94.88-13.05Q94.97-14.85 95.01-17.14L95.01-17.14 98.13-16.96Q98.04-13.32 97.82-10.68L97.82-10.68Q99.4-6.9 101.69-4.79L101.69-4.79 101.69-20.26 92.5-20.26 92.5-23.38 100.9-23.38 100.9-28.56 94-28.56 94-31.64 100.9-31.64 100.9-37.62 104.11-37.62 104.11-31.64 110.04-31.64 110.04-28.56 104.11-28.56 104.11-23.38 111.05-23.38 111.05-20.26 104.9-20.26 104.9-14.24 110.87-14.24 110.87-11.25ZM144.76-22.85L138.03-21.71 137.37-24.79Q141.86-25.49 144.76-25.93L144.76-25.93 144.76-30.28 138.03-30.28 138.03-33.27 144.76-33.27 144.76-37.62 147.83-37.62 147.83-33.27 153.63-33.27 153.63-30.28 147.83-30.28 147.83-26.41Q148.75-26.54 150.64-26.89L150.64-26.89Q152.75-27.25 153.76-27.42L153.76-27.42 153.94-24.52Q150.25-23.82 147.83-23.38L147.83-23.38 147.83-18.9Q147.83-16.79 146.82-16.17L146.82-16.17Q146.56-16.04 146.29-15.91L146.29-15.91Q144.8-15.38 140.45-15.42L140.45-15.42Q140.14-16.79 139.44-18.28L139.44-18.28Q141.5-18.24 144.01-18.24L144.01-18.24Q144.71-18.33 144.76-18.9L144.76-18.9 144.76-22.85ZM164.27-33.27L164.27-33.27 172.66-33.27Q172.4-22.54 173.1-20.17L173.1-20.17Q173.54-18.72 174.42-18.68L174.42-18.68Q175.3-18.68 175.52-21.09L175.52-21.09Q175.56-21.75 175.61-22.59L175.61-22.59Q176.97-21.67 178.11-21.31L178.11-21.31Q177.76-17.05 176.18-16.13L176.18-16.13Q175.43-15.69 174.29-15.69L174.29-15.69Q171.21-15.69 170.2-19.6L170.2-19.6Q169.45-22.54 169.5-30.37L169.5-30.37 163.96-30.37Q163.61-26.81 162.73-24.21L162.73-24.21Q166.11-22.06 168.49-20.21L168.49-20.21 166.68-17.53Q164.97-18.98 161.46-21.4L161.46-21.4Q159.17-17.71 155.13-15.73L155.13-15.73 157.63-15.73Q157.37-14.06 157.06-12.61L157.06-12.61 173.67-12.61Q173.67-12.57 173.54-11.12L173.54-11.12Q172.62-1.05 170.86 1.27L170.86 1.27Q170.68 1.49 170.51 1.67L170.51 1.67Q169.15 2.81 166.99 2.94L166.99 2.94Q164.88 3.08 159.92 2.77L159.92 2.77Q159.83 1.1 158.91-0.26L158.91-0.26Q162.33 0.04 165.76 0.04L165.76 0.04Q167.17 0 167.7-0.4L167.7-0.4Q169.23-1.67 170.07-9.62L170.07-9.62 156.23-9.62Q154.03-3.03 147.92 0.31L147.92 0.31Q144.27 2.33 138.96 3.52L138.96 3.52Q138.38 1.98 137.15 0.62L137.15 0.62Q147.35-1.41 151.08-6.68L151.08-6.68Q152.01-8.04 152.67-9.62L152.67-9.62 139.22-9.62 139.22-12.61 153.63-12.61Q153.98-14.33 154.2-15.73L154.2-15.73 154.47-15.73Q153.85-16.92 152.67-17.89L152.67-17.89Q157.06-19.91 158.86-23.16L158.86-23.16Q155.65-25.22 154.38-25.93L154.38-25.93 156.14-28.21Q156.8-27.82 158.16-27.03L158.16-27.03Q159.39-26.28 160-25.93L160-25.93Q160.62-28.13 160.88-30.37L160.88-30.37 154.56-30.37 154.56-33.27 161.15-33.27Q161.24-34.76 161.32-37.66L161.32-37.66 164.44-37.66Q164.36-34.67 164.27-33.27Z" transform="translate(-1.5799999237060547, 37.709999084472656)"></path></g> <!----> <!----> <!----> <!----> <!----> <!----> <!----></g></g> <g data-gra="path-slogan" fill-rule="" class="tp-slogan iconsvg-slogansvg" fill="#fd9f30" transform="translate(47.73999786376953,47.22999954223633)"><!----> <!----> <g transform="scale(1, 1)"><g transform="scale(1)"><path d="M2.06-5.06L6.56-5.06L6.56-8.58L7.73-8.58L7.73 0L6.56 0L6.56-3.98L2.06-3.98L2.06 0L0.89 0L0.89-8.58L2.06-8.58L2.06-5.06ZM10.83-1.03L15.98-1.03L15.98 0L9.66 0L9.66-8.58L15.89-8.58L15.89-7.59L10.83-7.59L10.83-4.92L15.52-4.92L15.52-3.89L10.83-3.89L10.83-1.03ZM18.89-8.58L23.20-1.64L23.20-8.58L24.33-8.58L24.33 0L23.02 0L18.66-6.94L18.61-6.94L18.61 0L17.48 0L17.48-8.58L18.89-8.58ZM31.78 0L30.94-2.48L27.47-2.48L26.58 0L25.41 0L28.64-8.58L29.95-8.58L33.05 0L31.78 0ZM29.20-7.31L27.84-3.52L30.52-3.52L29.25-7.31L29.20-7.31ZM35.48-8.58L39.80-1.64L39.80-8.58L40.92-8.58L40.92 0L39.61 0L35.25-6.94L35.20-6.94L35.20 0L34.08 0L34.08-8.58L35.48-8.58ZM51.05-1.08L50.16-1.78L50.77-2.48L51.84-1.64Q52.83-2.63 52.83-4.27L52.83-4.27Q52.64-7.64 49.83-7.83L49.83-7.83Q46.97-7.69 46.83-4.27L46.83-4.27Q46.97-0.94 49.83-0.80L49.83-0.80Q50.53-0.80 51.05-1.08L51.05-1.08ZM52.78-0.94L53.91-0.05L53.34 0.56L52.03-0.33Q51.19 0.14 49.83 0.14L49.83 0.14Q45.89 0 45.61-4.27L45.61-4.27Q45.84-8.72 49.83-8.81L49.83-8.81Q53.72-8.67 54-4.27L54-4.27Q53.95-2.20 52.78-0.94L52.78-0.94ZM61.03-3.19L61.03-8.58L62.20-8.58L62.20-3.05Q62.06 0.05 58.69 0.14L58.69 0.14Q55.55 0.05 55.41-2.86L55.41-2.86L55.41-8.58L56.58-8.58L56.58-3.19Q56.63-0.84 58.73-0.80L58.73-0.80Q61.03-0.84 61.03-3.19L61.03-3.19ZM70.27-6.09L70.27-6.09L69.19-6.09Q69.09-7.73 67.03-7.83L67.03-7.83Q65.11-7.78 65.11-6.33L65.11-6.33Q65.11-5.39 66.14-5.25L66.14-5.25L68.58-4.69Q70.50-4.22 70.50-2.34L70.50-2.34Q70.45 0.05 67.13 0.14L67.13 0.14Q65.30 0.14 64.55-0.61L64.55-0.61Q63.61-1.31 63.66-2.77L63.66-2.77L64.78-2.77Q64.83-0.80 67.13-0.75L67.13-0.75Q69.38-0.80 69.42-2.20L69.42-2.20Q69.61-3.38 67.55-3.75L67.55-3.75L65.77-4.13Q63.94-4.64 63.94-6.19L63.94-6.19Q64.08-8.72 66.94-8.81L66.94-8.81Q70.17-8.81 70.27-6.09ZM73.13-5.06L77.63-5.06L77.63-8.58L78.80-8.58L78.80 0L77.63 0L77.63-3.98L73.13-3.98L73.13 0L71.95 0L71.95-8.58L73.13-8.58L73.13-5.06ZM80.77-8.58L81.94-8.58L81.94 0L80.77 0L80.77-8.58Z" transform="translate(-0.890625, 8.8125)"></path></g></g></g></g></g><defs v-gra="od"></defs></svg>